<svg viewBox="0 0 1024 1024" xmlns="http://www.w3.org/2000/svg"><path fill="currentColor" d="M642.1655134 512l-349.81981623-349.81981621c-32.54137884-32.54137884-32.54137884-81.35344611 1e-8-113.89482308 32.54137884-32.54137884 81.35344611-32.54137884 113.89482304 3e-8l406.76722873 406.76722677c32.54137884 32.54137884 32.54137884 81.35344611 0 113.89482498l-406.76722873 406.76722677c-32.54137884 32.54137884-81.35344611 32.54137884-113.89482304 1e-8-32.54137884-32.54137884-32.54137884-81.35344611-1e-8-113.89482306l349.81981623-349.81981621z"></path><path fill="currentColor" d="M642.1655134 512l-349.81981623-349.81981621c-32.54137884-32.54137884-32.54137884-81.35344611 1e-8-113.89482308 32.54137884-32.54137884 81.35344611-32.54137884 113.89482304 3e-8l406.76722873 406.76722677c32.54137884 32.54137884 32.54137884 81.35344611 0 113.89482498l-406.76722873 406.76722677c-32.54137884 32.54137884-81.35344611 32.54137884-113.89482304 1e-8-32.54137884-32.54137884-32.54137884-81.35344611-1e-8-113.89482306l349.81981623-349.81981621z"></path></svg>
