<svg viewBox="0 0 1024 1024" xmlns="http://www.w3.org/2000/svg">
  <path fill="currentColor" d="M512 32C246.903125 32 32 246.903125 32 512s214.903125 480 480 480 480-214.903125 480-480S777.096875 32 512 32z m0 816c-37.875 0-68.56875001-30.703125-68.56875001-68.56875001s30.703125-68.56875001 68.56875001-68.56874999 68.56875001 30.703125 68.56875001 68.56875002S549.875 848 512 848z m187.2-392.915625a458.44125001 458.44125001 0 0 1-88.453125 89.14687499 167.3840625 167.3840625 0 0 0-43.884375 47.31562501 157.7090625 157.7090625 0 0 0-7.546875 63.76875H458.515625v-26.74687499c-0.890625-27.66562501 4.74375001-55.153125 16.45312501-80.23125001a245.495625 245.495625 0 0 1 64.45312499-68.56874999 489.793125 489.793125 0 0 0 58.28437499-51.43125001 68.59874999 68.59874999 0 0 0 14.4-42.515625 72.0328125 72.0328125 0 0 0-26.05312499-55.546875 101.484375 101.484375 0 0 0-68.56875-23.315625c-24.965625-0.30000001-49.246875 8.19375001-68.56875 24a145.3246875 145.3246875 0 0 0-39.08437501 73.36875c-3.43125002 20.56875001-102.853125 29.484375-102.17812499-12.34687501a172.1315625 172.1315625 0 0 1 60.346875-120A213.928125 213.928125 0 0 1 512 219.18124999a221.51625001 221.51625001 0 0 1 152.23125002 50.05312501 150.83156251 150.83156251 0 0 1 53.48437498 116.56875c0.61875001 24.4125-5.8125 48.459375-18.515625 69.28125z"></path>
</svg>
