<svg viewBox="0 0 1117 1024" xmlns="http://www.w3.org/2000/svg"><path fill="currentColor" d="M354.35141844 844.5672725c-0.145455-0.08727281-4.654545-1.68727312-13.49818219-4.82909063-32.37818156-11.46181781-33.01818188-11.665455-53.29454531-21.11999999-13.67272688-6.40000031-53.03272687-32.75636345-74.61818157-47.88363657a32.64 32.64 0 0 0-2.85090937-1.74545437 371.31636375 371.31636375 0 0 1-113.92000031-168.75636375 345.01818187 345.01818187 0 0 0 411.52000031-60.04363594 351.62181844 351.62181844 0 0 0 59.54909062-414.66181875 367.62181781 367.62181781 0 0 1 145.68727313 90.76363688 376.174545 376.174545 0 0 1 53.58545437 68.24727281l3.75272719 7.44727218c15.47636345 30.69090938 15.7672725 31.2727275 23.94181875 52.16000063 7.94181844 20.305455 21.06181781 66.53090906 21.20727188 66.99636281a30.83636343 30.83636343 0 0 0 38.05090969 21.29454562c16.32-4.71272719 25.80363657-21.87636375 21.12-38.3418178a432.61090875 432.61090875 0 0 0-54.3127275-139.84000032l-1.60000032-3.17090906a31.01090906 31.01090906 0 0 0-4.33454531-6.40000031 434.76363657 434.76363657 0 0 0-234.90909094-180.334545c-18.21090937-5.52727312-45.90545437-5.58545437-63.94181813 12.59636343-19.37454562 19.51999969-17.04727313 47.68000031-9.1345453 65.83272751l1.71636375 3.34545467a289.25090906 289.25090906 0 0 1-43.89818157 350.22545439 283.84000031 283.84000031 0 0 1-347.57818219 44.21818219c-11.69454562-6.07999969-46.05090938-21.03272719-68.65454531 1.74545437-21.87636375 22.05090937-15.44727281 57.94909125-12.94545469 68.45090905a440.20363594 440.20363594 0 0 0 107.72363625 180.07272751 432.96 432.96 0 0 0 196.01454563 113.62909032c1.74545438 0.11636343 3.49090875 0.26181844 5.17818187 0.26181843a31.06909125 31.06909125 0 0 0 10.47272719-60.16000031z"></path><path fill="currentColor" d="M931.92232719 588.01454562C892.47505438 513.83272719 822.0168725 468.36363594 744.86778219 468.36363594c-101.06181844 0-189.06181781 80.02909125-212.305455 189.52727344C477.5223275 679.35999969 439.41323655 738.414545 439.41323655 806.10909125c0 74.00727281 46.10909063 140.24727281 107.46181783 156.334545L913.3623275 962.90909094C1004.94050938 962.90909094 1079.41323594 878.54545437 1079.41323594 774.86545438c0-96.58181812-64.63999969-176.37818156-147.49090875-186.85090876z m-18.55999969 309.23636344H577.97323625l-1.16363625-0.02909062c-43.22909062-0.64000031-78.37090875-41.01818156-78.37090875-89.94909094 0-43.40363625 27.31636406-80.58181781 64.93090875-88.43636344l20.85818156-4.36363687 3.02545499-23.73818156c11.22909094-87.97090875 79.01090906-154.32727313 157.64363626-154.32727313 46.16727281 0 89.01818156 22.39999969 118.83636376 60.30545438-33.07636406 11.81090906-62.66181844 35.14181813-83.72363626 67.25818218-9.71636343 14.83636406-6.98181844 35.78181844 6.10909031 46.77818157 13.09090875 11.02545469 31.56363655 7.94181844 41.28-6.89454563 20.42181844-31.1272725 51.78181781-49.01818219 85.96363688-49.01818125 58.99636406 0 107.02545469 54.40000031 107.02545469 121.19272688 0 66.82181813-48 121.19272688-107.02545469 121.19272781z"></path></svg>
