<svg viewBox="0 0 1024 1024" xmlns="http://www.w3.org/2000/svg"><path fill="currentColor" d="M735.059375 517.6475c-16.9415625 0-31.059375 14.116875-31.059375 28.2346875 0 16.940625 14.1178125 31.059375 31.059375 31.059375 16.940625 0 31.0584375-14.11875001 31.0584375-31.059375 0-14.1178125-14.1178125-28.2346875-31.059375-28.2346875z m-155.295 0c-16.940625 0-31.059375 14.116875-31.059375 28.2346875 0 16.940625 14.11875001 31.059375 31.059375 31.059375s31.059375-14.11875001 31.05937501-31.059375c0-14.1178125-14.11875001-28.2346875-31.05937501-28.2346875z"></path><path fill="currentColor" d="M794.3525 32H229.6475C119.52874998 32 32 119.5296875 32 229.6475v564.705C32 904.47125002 119.5296875 992 229.6475 992h564.705C904.47125002 992 992 904.4703125 992 794.3525V229.6475C992 119.52874998 904.4703125 32 794.3525 32zM407.5296875 661.6475c-28.235625 0-56.47124999-2.82375001-81.8821875-11.295H320l-96 48 25.411875-79.0584375s-2.82375001 0-2.82375-2.82375c-62.1178125-39.52875001-101.6465625-101.6465625-101.6465625-172.2346875 0-118.588125 118.588125-214.588125 262.588125-214.588125 129.88125001 0 240 79.0584375 259.764375 183.52875001H656c-132.7059375 0-240 87.5296875-240 197.6475 0 16.940625 2.82375001 33.88125001 8.4703125 50.82374999h-16.940625z m384 93.17624999s-2.82375001 2.82375001 0 2e-8l19.764375 67.76437499-79.059375-39.5296875h-2.8228125c-22.588125 5.6475-45.17625001 8.47124999-70.58812501 8.47125-121.411875 0-223.059375-81.8821875-223.05937499-183.5296875s98.82375001-183.5296875 223.05937499-183.5296875S879.0584375 506.3525 879.0584375 608c0 62.1178125-33.88125001 112.940625-87.52875 146.82374999z"></path><path fill="currentColor" d="M317.17625001 336.940625c-19.764375 0-36.7059375 16.9415625-36.70593751 33.88312499 0 19.764375 16.940625 33.88125001 36.70593751 33.88125001s36.7059375-16.940625 36.70593749-33.88125001c0-19.7653125-16.940625-33.8821875-36.70593749-33.88218749z m180.70593749 67.7653125c19.7653125 0 36.7059375-16.940625 36.7059375-33.88218751 0-19.7653125-16.940625-33.8821875-36.7059375-33.88218749-19.764375 0-36.7059375 16.940625-36.70593749 33.88125 0 19.7653125 16.940625 33.883125 36.70593749 33.883125z"></path></svg>
